<svg id="visual" viewBox="0 0 1920 1080" width="1920" height="1080" xmlns="http://www.w3.org/2000/svg" xmlns:xlink="http://www.w3.org/1999/xlink" version="1.1"><rect x="0" y="0" width="1920" height="1080" fill="#001122"></rect><path d="M1323 1080L1348.3 1060C1373.7 1040 1424.3 1000 1428 960C1431.7 920 1388.3 880 1361.7 840C1335 800 1325 760 1328.2 720C1331.3 680 1347.7 640 1382.2 600C1416.7 560 1469.3 520 1474 480C1478.7 440 1435.3 400 1432.5 360C1429.7 320 1467.3 280 1476.2 240C1485 200 1465 160 1477.2 120C1489.3 80 1533.7 40 1555.8 20L1578 0L1920 0L1920 20C1920 40 1920 80 1920 120C1920 160 1920 200 1920 240C1920 280 1920 320 1920 360C1920 400 1920 440 1920 480C1920 520 1920 560 1920 600C1920 640 1920 680 1920 720C1920 760 1920 800 1920 840C1920 880 1920 920 1920 960C1920 1000 1920 1040 1920 1060L1920 1080Z" fill="#fa7268"></path><path d="M1536 1080L1535.2 1060C1534.3 1040 1532.7 1000 1537.3 960C1542 920 1553 880 1549 840C1545 800 1526 760 1545.2 720C1564.3 680 1621.7 640 1632.8 600C1644 560 1609 520 1601 480C1593 440 1612 400 1604.7 360C1597.3 320 1563.7 280 1553.3 240C1543 200 1556 160 1571.2 120C1586.3 80 1603.7 40 1612.3 20L1621 0L1920 0L1920 20C1920 40 1920 80 1920 120C1920 160 1920 200 1920 240C1920 280 1920 320 1920 360C1920 400 1920 440 1920 480C1920 520 1920 560 1920 600C1920 640 1920 680 1920 720C1920 760 1920 800 1920 840C1920 880 1920 920 1920 960C1920 1000 1920 1040 1920 1060L1920 1080Z" fill="#e34c67"></path><path d="M1677 1080L1695 1060C1713 1040 1749 1000 1753.7 960C1758.3 920 1731.7 880 1729.7 840C1727.7 800 1750.3 760 1761 720C1771.7 680 1770.3 640 1767.2 600C1764 560 1759 520 1741.5 480C1724 440 1694 400 1700.7 360C1707.3 320 1750.7 280 1772.3 240C1794 200 1794 160 1797.3 120C1800.7 80 1807.3 40 1810.7 20L1814 0L1920 0L1920 20C1920 40 1920 80 1920 120C1920 160 1920 200 1920 240C1920 280 1920 320 1920 360C1920 400 1920 440 1920 480C1920 520 1920 560 1920 600C1920 640 1920 680 1920 720C1920 760 1920 800 1920 840C1920 880 1920 920 1920 960C1920 1000 1920 1040 1920 1060L1920 1080Z" fill="#c62368"></path></svg>