<svg id="visual" viewBox="0 0 900 300" width="900" height="300" xmlns="http://www.w3.org/2000/svg" xmlns:xlink="http://www.w3.org/1999/xlink" version="1.1"><rect x="0" y="0" width="900" height="300" fill="#001220"></rect><path d="M0 182L16.7 187C33.3 192 66.7 202 100 202.7C133.3 203.3 166.7 194.7 200 189.5C233.3 184.3 266.7 182.7 300 183.3C333.3 184 366.7 187 400 193.7C433.3 200.3 466.7 210.7 500 211.7C533.3 212.7 566.7 204.3 600 203.8C633.3 203.3 666.7 210.7 700 212.3C733.3 214 766.7 210 800 212.3C833.3 214.7 866.7 223.3 883.3 227.7L900 232L900 301L883.3 301C866.7 301 833.3 301 800 301C766.7 301 733.3 301 700 301C666.7 301 633.3 301 600 301C566.7 301 533.3 301 500 301C466.7 301 433.3 301 400 301C366.7 301 333.3 301 300 301C266.7 301 233.3 301 200 301C166.7 301 133.3 301 100 301C66.7 301 33.3 301 16.7 301L0 301Z" fill="#fa7268"></path><path d="M0 224L16.7 223.8C33.3 223.7 66.7 223.3 100 224.2C133.3 225 166.7 227 200 226.2C233.3 225.3 266.7 221.7 300 225.5C333.3 229.3 366.7 240.7 400 242.8C433.3 245 466.7 238 500 236.3C533.3 234.7 566.7 238.3 600 237C633.3 235.7 666.7 229.3 700 227.3C733.3 225.3 766.7 227.7 800 230.5C833.3 233.3 866.7 236.7 883.3 238.3L900 240L900 301L883.3 301C866.7 301 833.3 301 800 301C766.7 301 733.3 301 700 301C666.7 301 633.3 301 600 301C566.7 301 533.3 301 500 301C466.7 301 433.3 301 400 301C366.7 301 333.3 301 300 301C266.7 301 233.3 301 200 301C166.7 301 133.3 301 100 301C66.7 301 33.3 301 16.7 301L0 301Z" fill="#e34c67"></path><path d="M0 251L16.7 254.5C33.3 258 66.7 265 100 266C133.3 267 166.7 262 200 261.7C233.3 261.3 266.7 265.7 300 267.7C333.3 269.7 366.7 269.3 400 268.7C433.3 268 466.7 267 500 263.7C533.3 260.3 566.7 254.7 600 256C633.3 257.3 666.7 265.7 700 269.8C733.3 274 766.7 274 800 274.7C833.3 275.3 866.7 276.7 883.3 277.3L900 278L900 301L883.3 301C866.7 301 833.3 301 800 301C766.7 301 733.3 301 700 301C666.7 301 633.3 301 600 301C566.7 301 533.3 301 500 301C466.7 301 433.3 301 400 301C366.7 301 333.3 301 300 301C266.7 301 233.3 301 200 301C166.7 301 133.3 301 100 301C66.7 301 33.3 301 16.7 301L0 301Z" fill="#c62368"></path></svg>